<mxfile host="app.diagrams.net" modified="2020-04-16T19:28:47.530Z" agent="5.0 (Windows NT 10.0; Win64; x64) AppleWebKit/537.36 (KHTML, like Gecko) Chrome/81.0.4044.113 Safari/537.36" etag="ffZ8nnh7OLHD1CmKGb4n" version="12.9.13" type="github">
  <diagram id="C5RBs43oDa-KdzZeNtuy" name="Page-1">
    <mxGraphModel dx="1022" dy="469" grid="1" gridSize="10" guides="1" tooltips="1" connect="1" arrows="1" fold="1" page="1" pageScale="1" pageWidth="827" pageHeight="1169" math="0" shadow="0">
      <root>
        <mxCell id="WIyWlLk6GJQsqaUBKTNV-0" />
        <mxCell id="WIyWlLk6GJQsqaUBKTNV-1" parent="WIyWlLk6GJQsqaUBKTNV-0" />
        <mxCell id="_m6u7uZzvF7BZzCFALR9-0" value="&lt;pre style=&quot;font-family: &amp;#34;consolas&amp;#34; ; font-size: 8.3pt&quot;&gt;Properties prop = &lt;span style=&quot;font-weight: bold&quot;&gt;new &lt;/span&gt;Properties();&lt;/pre&gt;&lt;pre style=&quot;font-family: &amp;#34;consolas&amp;#34; ; font-size: 8.3pt&quot;&gt;&lt;pre style=&quot;font-family: &amp;#34;consolas&amp;#34; ; font-size: 8.3pt&quot;&gt;&lt;span style=&quot;font-weight: bold&quot;&gt;int &lt;/span&gt;split = &lt;span style=&quot;font-weight: bold&quot;&gt;upFile&lt;/span&gt;.getName().lastIndexOf(&lt;span style=&quot;font-weight: bold&quot;&gt;&quot;.&quot;&lt;/span&gt;);&lt;/pre&gt;&lt;/pre&gt;" style="rounded=1;whiteSpace=wrap;html=1;" vertex="1" parent="WIyWlLk6GJQsqaUBKTNV-1">
          <mxGeometry x="320" y="110" width="320" height="110" as="geometry" />
        </mxCell>
        <mxCell id="_m6u7uZzvF7BZzCFALR9-1" value="&lt;pre style=&quot;font-family: &amp;#34;consolas&amp;#34; ; font-size: 8.3pt&quot;&gt;&lt;span&gt;&amp;lt;&lt;/span&gt;&lt;span style=&quot;font-weight: bold&quot;&gt;t&lt;/span&gt;&lt;span style=&quot;font-weight: bold&quot;&gt;:inputFileUpload &lt;/span&gt;&lt;span style=&quot;font-weight: bold&quot;&gt;id&lt;/span&gt;&lt;span style=&quot;font-weight: bold&quot;&gt;=&quot;fileuploads&quot;  &lt;/span&gt;&lt;span style=&quot;font-weight: bold&quot;&gt;value&lt;/span&gt;&lt;span style=&quot;font-weight: bold&quot;&gt;=&quot;&lt;/span&gt;&lt;span style=&quot;font-weight: bold&quot;&gt;#{&lt;/span&gt;&lt;span&gt;pc_uploadContractDocument.upFile&lt;/span&gt;&lt;span style=&quot;font-weight: bold&quot;&gt;}&lt;/span&gt;&lt;span style=&quot;font-weight: bold&quot;&gt;&quot; &lt;/span&gt;&lt;span style=&quot;font-weight: bold&quot;&gt;maxlength&lt;/span&gt;&lt;span style=&quot;font-weight: bold&quot;&gt;=&quot;200000&quot; &lt;/span&gt;&lt;span style=&quot;font-weight: bold&quot;&gt;storage&lt;/span&gt;&lt;span style=&quot;font-weight: bold&quot;&gt;=&quot;file&quot;  &lt;/span&gt;&lt;span style=&quot;font-weight: bold&quot;&gt;style&lt;/span&gt;&lt;span style=&quot;font-weight: bold&quot;&gt;=&quot;width: 254px&quot;  &lt;/span&gt;&lt;span&gt;&amp;gt;&lt;/span&gt;&lt;br&gt;&lt;span&gt;&amp;lt;/&lt;/span&gt;&lt;span style=&quot;font-weight: bold&quot;&gt;t&lt;/span&gt;&lt;span style=&quot;font-weight: bold&quot;&gt;:inputFileUpload&lt;/span&gt;&lt;span&gt;&amp;gt;&lt;/span&gt;&lt;/pre&gt;" style="rounded=1;whiteSpace=wrap;html=1;" vertex="1" parent="WIyWlLk6GJQsqaUBKTNV-1">
          <mxGeometry x="90" width="850" height="60" as="geometry" />
        </mxCell>
      </root>
    </mxGraphModel>
  </diagram>
</mxfile>
